<svg xmlns="http://www.w3.org/2000/svg" viewBox="0 0 12 12"><defs><style>.cls-1{fill:#fff;}.cls-2{fill:#00c569;}</style></defs><g id="Layer_2" data-name="Layer 2"><g id="Layer_1-2" data-name="Layer 1"><g id="Layer_2-2" data-name="Layer 2"><g id="Search"><path class="cls-1" d="M11.82,11,9.28,8.43a.65.65,0,0,0-.93,0,4.2,4.2,0,1,1,.1-5.94,4.18,4.18,0,0,1,1,4,.61.61,0,0,0,1.17.31h0A5.42,5.42,0,1,0,8.79,9.65L11,11.82a.59.59,0,0,0,.85,0h0a.6.6,0,0,0,0-.85Z"/><path class="cls-2" d="M7.22,7.22a.59.59,0,0,0-.72-.07,2,2,0,0,1-2.08,0,.59.59,0,0,0-.69.08l0,0a.57.57,0,0,0,0,.81.4.4,0,0,0,.12.1,3.22,3.22,0,0,0,3.36-.07.57.57,0,0,0,.18-.79.39.39,0,0,0-.08-.1Z"/></g></g></g></g></svg>